# Blender v3.2.2 OBJ File: ''
# www.blender.org
mtllib Cone.mtl
v 0.000000 1.000000 -1.000000
v -0.104528 1.000000 -0.994522
v -0.207912 1.000000 -0.978148
v -0.309017 1.000000 -0.951057
v -0.406737 1.000000 -0.913545
v -0.500000 1.000000 -0.866025
v -0.587785 1.000000 -0.809017
v -0.669131 1.000000 -0.743145
v -0.743145 1.000000 -0.669131
v -0.809017 1.000000 -0.587785
v -0.866025 1.000000 -0.500000
v -0.913545 1.000000 -0.406737
v -0.951056 1.000000 -0.309017
v -0.978148 1.000000 -0.207912
v -0.994522 1.000000 -0.104528
v -1.000000 1.000000 0.000000
v -0.994522 1.000000 0.104529
v -0.978148 1.000000 0.207912
v -0.951056 1.000000 0.309017
v -0.913545 1.000000 0.406737
v -0.866025 1.000000 0.500000
v -0.809017 1.000000 0.587785
v -0.743145 1.000000 0.669131
v -0.669131 1.000000 0.743145
v -0.587785 1.000000 0.809017
v -0.500000 1.000000 0.866025
v -0.406736 1.000000 0.913545
v -0.309017 1.000000 0.951056
v -0.207912 1.000000 0.978148
v -0.104528 1.000000 0.994522
v 0.000000 1.000000 1.000000
v 0.104529 1.000000 0.994522
v 0.207912 1.000000 0.978148
v 0.309017 1.000000 0.951057
v 0.406737 1.000000 0.913545
v 0.500000 1.000000 0.866025
v 0.587785 1.000000 0.809017
v 0.669131 1.000000 0.743145
v 0.743145 1.000000 0.669131
v 0.809017 1.000000 0.587785
v 0.866026 1.000000 0.500000
v 0.913545 1.000000 0.406737
v 0.951057 1.000000 0.309017
v 0.978148 1.000000 0.207912
v 0.994522 1.000000 0.104528
v 1.000000 1.000000 -0.000000
v 0.994522 1.000000 -0.104528
v 0.978148 1.000000 -0.207911
v 0.951057 1.000000 -0.309017
v 0.913545 1.000000 -0.406737
v 0.866026 1.000000 -0.500000
v 0.809017 1.000000 -0.587785
v 0.743145 1.000000 -0.669131
v 0.669131 1.000000 -0.743145
v 0.587785 1.000000 -0.809017
v 0.500000 1.000000 -0.866025
v 0.406737 1.000000 -0.913546
v 0.309017 1.000000 -0.951057
v 0.207912 1.000000 -0.978148
v 0.104529 1.000000 -0.994522
v -0.000000 -1.000000 0.000000
vt 0.250000 0.490000
vt 0.250000 0.250000
vt 0.275087 0.488685
vt 0.299899 0.484755
vt 0.324164 0.478254
vt 0.347617 0.469251
vt 0.370000 0.457846
vt 0.391068 0.444164
vt 0.410591 0.428355
vt 0.428355 0.410591
vt 0.444164 0.391068
vt 0.457846 0.370000
vt 0.469251 0.347617
vt 0.478254 0.324164
vt 0.484755 0.299899
vt 0.488685 0.275087
vt 0.490000 0.250000
vt 0.488685 0.224913
vt 0.484755 0.200101
vt 0.478254 0.175836
vt 0.469251 0.152383
vt 0.457846 0.130000
vt 0.444164 0.108932
vt 0.428355 0.089409
vt 0.410591 0.071645
vt 0.391068 0.055836
vt 0.370000 0.042154
vt 0.347617 0.030749
vt 0.324164 0.021746
vt 0.299899 0.015245
vt 0.275087 0.011315
vt 0.250000 0.010000
vt 0.224913 0.011315
vt 0.200101 0.015245
vt 0.175836 0.021746
vt 0.152383 0.030749
vt 0.130000 0.042154
vt 0.108932 0.055836
vt 0.089409 0.071645
vt 0.071645 0.089409
vt 0.055836 0.108932
vt 0.042154 0.130000
vt 0.030749 0.152383
vt 0.021746 0.175836
vt 0.015245 0.200101
vt 0.011315 0.224913
vt 0.010000 0.250000
vt 0.011315 0.275087
vt 0.015245 0.299899
vt 0.021746 0.324164
vt 0.030749 0.347617
vt 0.042154 0.370000
vt 0.055836 0.391068
vt 0.071645 0.410591
vt 0.089409 0.428355
vt 0.108932 0.444164
vt 0.130000 0.457846
vt 0.152383 0.469251
vt 0.175836 0.478254
vt 0.200101 0.484755
vt 0.750000 0.490000
vt 0.775087 0.488685
vt 0.799899 0.484755
vt 0.824164 0.478254
vt 0.847617 0.469251
vt 0.870000 0.457846
vt 0.891068 0.444164
vt 0.910591 0.428355
vt 0.928355 0.410591
vt 0.944164 0.391068
vt 0.957846 0.370000
vt 0.969251 0.347617
vt 0.978254 0.324164
vt 0.984755 0.299899
vt 0.988685 0.275087
vt 0.990000 0.250000
vt 0.988685 0.224913
vt 0.984755 0.200101
vt 0.978254 0.175836
vt 0.969251 0.152383
vt 0.957846 0.130000
vt 0.944164 0.108932
vt 0.928355 0.089409
vt 0.910591 0.071645
vt 0.891068 0.055836
vt 0.870000 0.042154
vt 0.847617 0.030749
vt 0.824164 0.021746
vt 0.799899 0.015245
vt 0.775087 0.011315
vt 0.750000 0.010000
vt 0.724913 0.011315
vt 0.700101 0.015245
vt 0.675836 0.021746
vt 0.652383 0.030749
vt 0.630000 0.042154
vt 0.608932 0.055836
vt 0.589409 0.071645
vt 0.571645 0.089409
vt 0.555836 0.108932
vt 0.542154 0.130000
vt 0.530749 0.152383
vt 0.521746 0.175836
vt 0.515245 0.200101
vt 0.511315 0.224913
vt 0.510000 0.250000
vt 0.511315 0.275087
vt 0.515245 0.299899
vt 0.521746 0.324164
vt 0.530749 0.347617
vt 0.542154 0.370000
vt 0.555836 0.391068
vt 0.571645 0.410591
vt 0.589409 0.428355
vt 0.608932 0.444164
vt 0.630000 0.457846
vt 0.652383 0.469251
vt 0.675836 0.478254
vt 0.700101 0.484755
vt 0.724913 0.488685
vt 0.224913 0.488685
vn -0.0468 -0.4467 -0.8934
vn -0.1400 -0.4467 -0.8837
vn -0.2316 -0.4467 -0.8642
vn -0.3206 -0.4467 -0.8352
vn -0.4062 -0.4467 -0.7972
vn -0.4873 -0.4467 -0.7503
vn -0.5630 -0.4467 -0.6953
vn -0.6326 -0.4467 -0.6326
vn -0.6953 -0.4467 -0.5630
vn -0.7503 -0.4467 -0.4873
vn -0.7972 -0.4467 -0.4062
vn -0.8352 -0.4467 -0.3206
vn -0.8642 -0.4467 -0.2316
vn -0.8837 -0.4467 -0.1400
vn -0.8934 -0.4467 -0.0468
vn -0.8934 -0.4467 0.0468
vn -0.8837 -0.4467 0.1400
vn -0.8642 -0.4467 0.2316
vn -0.8352 -0.4467 0.3206
vn -0.7972 -0.4467 0.4062
vn -0.7503 -0.4467 0.4873
vn -0.6953 -0.4467 0.5630
vn -0.6326 -0.4467 0.6326
vn -0.5630 -0.4467 0.6953
vn -0.4873 -0.4467 0.7503
vn -0.4062 -0.4467 0.7972
vn -0.3206 -0.4467 0.8352
vn -0.2316 -0.4467 0.8642
vn -0.1400 -0.4467 0.8837
vn -0.0468 -0.4467 0.8934
vn 0.0468 -0.4467 0.8934
vn 0.1400 -0.4467 0.8837
vn 0.2316 -0.4467 0.8642
vn 0.3206 -0.4467 0.8352
vn 0.4062 -0.4467 0.7972
vn 0.4873 -0.4467 0.7503
vn 0.5630 -0.4467 0.6953
vn 0.6326 -0.4467 0.6326
vn 0.6953 -0.4467 0.5630
vn 0.7503 -0.4467 0.4873
vn 0.7972 -0.4467 0.4062
vn 0.8352 -0.4467 0.3206
vn 0.8642 -0.4467 0.2316
vn 0.8837 -0.4467 0.1400
vn 0.8934 -0.4467 0.0468
vn 0.8934 -0.4467 -0.0468
vn 0.8837 -0.4467 -0.1400
vn 0.8642 -0.4467 -0.2316
vn 0.8352 -0.4467 -0.3206
vn 0.7972 -0.4467 -0.4062
vn 0.7503 -0.4467 -0.4873
vn 0.6953 -0.4467 -0.5630
vn 0.6326 -0.4467 -0.6326
vn 0.5630 -0.4467 -0.6953
vn 0.4873 -0.4467 -0.7503
vn 0.4062 -0.4467 -0.7972
vn 0.3206 -0.4467 -0.8352
vn 0.2316 -0.4467 -0.8642
vn 0.0000 1.0000 0.0000
vn 0.1400 -0.4467 -0.8837
vn 0.0468 -0.4467 -0.8934
usemtl None
s off
f 1/1/1 61/2/1 2/3/1
f 2/3/2 61/2/2 3/4/2
f 3/4/3 61/2/3 4/5/3
f 4/5/4 61/2/4 5/6/4
f 5/6/5 61/2/5 6/7/5
f 6/7/6 61/2/6 7/8/6
f 7/8/7 61/2/7 8/9/7
f 8/9/8 61/2/8 9/10/8
f 9/10/9 61/2/9 10/11/9
f 10/11/10 61/2/10 11/12/10
f 11/12/11 61/2/11 12/13/11
f 12/13/12 61/2/12 13/14/12
f 13/14/13 61/2/13 14/15/13
f 14/15/14 61/2/14 15/16/14
f 15/16/15 61/2/15 16/17/15
f 16/17/16 61/2/16 17/18/16
f 17/18/17 61/2/17 18/19/17
f 18/19/18 61/2/18 19/20/18
f 19/20/19 61/2/19 20/21/19
f 20/21/20 61/2/20 21/22/20
f 21/22/21 61/2/21 22/23/21
f 22/23/22 61/2/22 23/24/22
f 23/24/23 61/2/23 24/25/23
f 24/25/24 61/2/24 25/26/24
f 25/26/25 61/2/25 26/27/25
f 26/27/26 61/2/26 27/28/26
f 27/28/27 61/2/27 28/29/27
f 28/29/28 61/2/28 29/30/28
f 29/30/29 61/2/29 30/31/29
f 30/31/30 61/2/30 31/32/30
f 31/32/31 61/2/31 32/33/31
f 32/33/32 61/2/32 33/34/32
f 33/34/33 61/2/33 34/35/33
f 34/35/34 61/2/34 35/36/34
f 35/36/35 61/2/35 36/37/35
f 36/37/36 61/2/36 37/38/36
f 37/38/37 61/2/37 38/39/37
f 38/39/38 61/2/38 39/40/38
f 39/40/39 61/2/39 40/41/39
f 40/41/40 61/2/40 41/42/40
f 41/42/41 61/2/41 42/43/41
f 42/43/42 61/2/42 43/44/42
f 43/44/43 61/2/43 44/45/43
f 44/45/44 61/2/44 45/46/44
f 45/46/45 61/2/45 46/47/45
f 46/47/46 61/2/46 47/48/46
f 47/48/47 61/2/47 48/49/47
f 48/49/48 61/2/48 49/50/48
f 49/50/49 61/2/49 50/51/49
f 50/51/50 61/2/50 51/52/50
f 51/52/51 61/2/51 52/53/51
f 52/53/52 61/2/52 53/54/52
f 53/54/53 61/2/53 54/55/53
f 54/55/54 61/2/54 55/56/54
f 55/56/55 61/2/55 56/57/55
f 56/57/56 61/2/56 57/58/56
f 57/58/57 61/2/57 58/59/57
f 58/59/58 61/2/58 59/60/58
f 1/61/59 2/62/59 3/63/59 4/64/59 5/65/59 6/66/59 7/67/59 8/68/59 9/69/59 10/70/59 11/71/59 12/72/59 13/73/59 14/74/59 15/75/59 16/76/59 17/77/59 18/78/59 19/79/59 20/80/59 21/81/59 22/82/59 23/83/59 24/84/59 25/85/59 26/86/59 27/87/59 28/88/59 29/89/59 30/90/59 31/91/59 32/92/59 33/93/59 34/94/59 35/95/59 36/96/59 37/97/59 38/98/59 39/99/59 40/100/59 41/101/59 42/102/59 43/103/59 44/104/59 45/105/59 46/106/59 47/107/59 48/108/59 49/109/59 50/110/59 51/111/59 52/112/59 53/113/59 54/114/59 55/115/59 56/116/59 57/117/59 58/118/59 59/119/59 60/120/59
f 59/60/60 61/2/60 60/121/60
f 60/121/61 61/2/61 1/1/61
